<svg xmlns="http://www.w3.org/2000/svg" viewBox="0 0 140 140"><title>icon2</title><g id="Layer_2" data-name="Layer 2"><g id="design"><g id="_02_brown" data-name="02_brown"><circle cx="70" cy="70" r="70" style="fill:#ac9a7f"/><path d="M70,17.71a45.53,45.53,0,0,1,19.18,4.13A49.83,49.83,0,0,1,104.86,33a54,54,0,0,1,14.45,37,54,54,0,0,1-1.78,13.91,54.84,54.84,0,0,1-5,12.5A51.93,51.93,0,0,1,104.86,107a49.68,49.68,0,0,1-10,8.16,48.52,48.52,0,0,1-11.78,5.28,46.62,46.62,0,0,1-26.23,0,48.56,48.56,0,0,1-11.79-5.28,49.67,49.67,0,0,1-10-8.16A51.77,51.77,0,0,1,27.45,96.4a54.72,54.72,0,0,1-5-12.5A53.91,53.91,0,0,1,20.69,70H41.42A31.23,31.23,0,0,0,43.65,81.8a30.69,30.69,0,0,0,6.13,9.66,28.71,28.71,0,0,0,9.1,6.5,27.39,27.39,0,0,0,22.25,0,28.71,28.71,0,0,0,9.1-6.5,30.71,30.71,0,0,0,6.13-9.66,32.42,32.42,0,0,0,0-23.61,30.7,30.7,0,0,0-6.13-9.65A28.72,28.72,0,0,0,81.12,42,26.56,26.56,0,0,0,70,39.67Z" style="fill:#fff"/><path d="M32.38,67.24c-13.1,0-17.82-13.2-17.87-13.34a1.32,1.32,0,0,1,.18-1.2,1.17,1.17,0,0,1,1.08-.55c9.37.1,11.7-8.72,11.8-9.09a1.32,1.32,0,0,1,2.55.65c0,.11-2.62,9.9-12.4,11C19.4,58.09,24.2,65.42,34,64.53a1.32,1.32,0,1,1,.24,2.62Q33.28,67.24,32.38,67.24Z" style="fill:#fff"/><circle cx="16.44" cy="52.41" r="4.54" style="fill:#fff"/><circle cx="32.68" cy="55.47" r="2.13" transform="translate(-24.49 85.09) rotate(-86.89)" style="fill:#fff"/><path d="M31.62,39.83a1.55,1.55,0,0,1-1.3-2.39A41.52,41.52,0,0,1,65.38,18a1.55,1.55,0,0,1,1.47,1.62,1.58,1.58,0,0,1-1.62,1.47,39.08,39.08,0,0,0-32.31,18A1.55,1.55,0,0,1,31.62,39.83Z" style="fill:#fff"/><path d="M37.23,46.22a1.55,1.55,0,0,1-1.3-2.39C47.27,26.3,64.78,27.14,65.52,27.19A1.55,1.55,0,0,1,67,28.83a1.57,1.57,0,0,1-1.64,1.45h0c-.67,0-16.48-.73-26.81,15.23A1.55,1.55,0,0,1,37.23,46.22Z" style="fill:#fff"/><path d="M43.3,51.18A1.55,1.55,0,0,1,42,48.79c9.45-14.59,22.93-13.06,23.5-13a1.55,1.55,0,0,1,1.34,1.73,1.57,1.57,0,0,1-1.73,1.34c-.49-.06-12.15-1.3-20.51,11.6A1.55,1.55,0,0,1,43.3,51.18Z" style="fill:#fff"/></g></g></g></svg>