<svg xmlns="http://www.w3.org/2000/svg" viewBox="0 0 280 130"><title>logo3</title><g id="Layer_2" data-name="Layer 2"><g id="design"><g id="_01_black_w" data-name="01_black_w"><rect width="280" height="130"/><path d="M43.84,54.3a6.9,6.9,0,0,1,2.86.6A8.1,8.1,0,0,1,49,56.47a7.35,7.35,0,0,1,1.6,2.31,7,7,0,0,1,.59,2.87V92a7,7,0,0,1-.59,2.87A7.8,7.8,0,0,1,49,97.24,7.32,7.32,0,0,1,36.52,92V61.65a7.36,7.36,0,0,1,.56-2.87,6.92,6.92,0,0,1,1.57-2.31A8.1,8.1,0,0,1,41,54.89,6.91,6.91,0,0,1,43.84,54.3Z" style="fill:#fff"/><path d="M117.24,51.09a19.8,19.8,0,0,1-1.33,7.22,20.51,20.51,0,0,1-3.64,6.1,20.56,20.56,0,0,1,3.64,6.1,20.52,20.52,0,0,1-.28,15.24,20.4,20.4,0,0,1-10.9,10.9,19.93,19.93,0,0,1-8,1.61H73.65a7.16,7.16,0,0,1-2.8-.56,6.78,6.78,0,0,1-2.28-1.54,7.6,7.6,0,0,1-1.51-2.28,6.88,6.88,0,0,1-.56-2.77V37.71a6.87,6.87,0,0,1,.56-2.77,7.14,7.14,0,0,1,1.51-2.24,7,7,0,0,1,2.28-1.51,7.14,7.14,0,0,1,2.8-.56H96.78a19.93,19.93,0,0,1,8,1.61,20.4,20.4,0,0,1,10.9,10.9A19.93,19.93,0,0,1,117.24,51.09Zm-16,4.42a6.24,6.24,0,0,0-4.42-10.65h-16V57.33h16A6,6,0,0,0,101.19,55.5ZM80.73,84h16a6.08,6.08,0,0,0,4.42-1.79A5.9,5.9,0,0,0,103,77.79a6.22,6.22,0,0,0-6.24-6.24h-16Z" style="fill:#fff"/><path d="M158.14,30.68a29.4,29.4,0,0,1,12.38,2.67,32.17,32.17,0,0,1,10.12,7.22A34.87,34.87,0,0,1,190,64.45a34.89,34.89,0,0,1-1.15,9,35.41,35.41,0,0,1-3.22,8.07,33.53,33.53,0,0,1-5,6.82,32.08,32.08,0,0,1-6.43,5.27A31.33,31.33,0,0,1,166.61,97a30.1,30.1,0,0,1-16.94,0,31.35,31.35,0,0,1-7.61-3.41,32.07,32.07,0,0,1-6.43-5.27,33.43,33.43,0,0,1-5-6.82,35.33,35.33,0,0,1-3.22-8.07,34.81,34.81,0,0,1-1.15-9h13.38a20.16,20.16,0,0,0,1.44,7.62,19.81,19.81,0,0,0,4,6.23A18.54,18.54,0,0,0,151,82.5a17.69,17.69,0,0,0,14.37,0,18.54,18.54,0,0,0,5.87-4.2,19.83,19.83,0,0,0,4-6.23,20.93,20.93,0,0,0,0-15.24,19.83,19.83,0,0,0-4-6.23,18.54,18.54,0,0,0-5.87-4.2,17.15,17.15,0,0,0-7.18-1.53Z" style="fill:#fff"/><path d="M230.85,59.32a27.68,27.68,0,0,1,6,3.19,22,22,0,0,1,4.62,4.33,19.83,19.83,0,0,1,3,5.17,15.74,15.74,0,0,1,1.06,5.7,16.3,16.3,0,0,1-2,7.85A20.78,20.78,0,0,1,238.06,92a26.87,26.87,0,0,1-8.14,4.33,31.06,31.06,0,0,1-10,1.58,32.52,32.52,0,0,1-9.79-1.38,36.76,36.76,0,0,1-7.76-3.39,28.13,28.13,0,0,1-5.68-4.33,24.21,24.21,0,0,1-3.48-4.26h-.09a5.68,5.68,0,0,1-1-5.33,7.3,7.3,0,0,1,4.11-4.33,11.06,11.06,0,0,1,3.35-.94,10.13,10.13,0,0,1,3.39.17,11.37,11.37,0,0,1,3.09,1.17,7.34,7.34,0,0,1,2.37,2.08l.17.2a.61.61,0,0,1,.21.27.57.57,0,0,0,.21.27,7.16,7.16,0,0,0,.72,1A11.88,11.88,0,0,0,211.86,81a16.05,16.05,0,0,0,3.35,1.91,11.66,11.66,0,0,0,4.7.87,9.79,9.79,0,0,0,3.05-.47,8,8,0,0,0,2.5-1.31,6.21,6.21,0,0,0,1.65-1.95,5,5,0,0,0,.59-2.38,5.42,5.42,0,0,0-1.14-3.29,6.67,6.67,0,0,0-3.18-2.28L208.3,67a1.54,1.54,0,0,1-.51-.13,23,23,0,0,1-9.66-7,15.76,15.76,0,0,1-3.56-10,15.16,15.16,0,0,1,1.91-7.38,19.69,19.69,0,0,1,5.13-6,25.56,25.56,0,0,1,7.59-4.06,28.44,28.44,0,0,1,9.37-1.51,27.55,27.55,0,0,1,8.94,1.38,39.51,39.51,0,0,1,7,3.12,30.06,30.06,0,0,1,4.79,3.32q1.78,1.58,2.12,2A6.72,6.72,0,0,1,243,43.25a5.63,5.63,0,0,1,.25,2.72,6,6,0,0,1-1.1,2.58,7.77,7.77,0,0,1-2.33,2.11,9.61,9.61,0,0,1-3.18,1.21,11.82,11.82,0,0,1-3.43.17A10.49,10.49,0,0,1,230,51.2a8.15,8.15,0,0,1-2.63-1.81,14.78,14.78,0,0,0-1.48-1.31,15.7,15.7,0,0,0-2.2-1.44,17.86,17.86,0,0,0-2.54-1.14,7.67,7.67,0,0,0-2.58-.47,6.82,6.82,0,0,0-4.37,1.44,4.29,4.29,0,0,0-1.82,3.46,4,4,0,0,0,.89,2.48,6.2,6.2,0,0,0,2.33,1.81l14.92,5a.42.42,0,0,1,.21,0A.2.2,0,0,0,230.85,59.32Z" style="fill:#fff"/><circle cx="43.88" cy="40.05" r="9.39" style="fill:#fff"/><path d="M133.68,62.75c-8.46,0-11.51-8.52-11.54-8.61a.85.85,0,0,1,.11-.77A.76.76,0,0,1,123,53c6,.06,7.56-5.63,7.62-5.87a.85.85,0,0,1,1.65.42c0,.07-1.69,6.39-8,7.09,1.09,2.19,4.19,6.93,10.5,6.35a.85.85,0,1,1,.15,1.69Q134.26,62.75,133.68,62.75Z" style="fill:#fff"/><circle cx="123.38" cy="53.18" r="2.93" style="fill:#fff"/><circle cx="133.87" cy="55.16" r="1.37" transform="translate(71.53 185.84) rotate(-86.89)" style="fill:#fff"/><path d="M133.19,45.06a1,1,0,0,1-.84-1.54A26.81,26.81,0,0,1,155,31a1,1,0,0,1,.95,1,1,1,0,0,1-1,1A25.23,25.23,0,0,0,134,44.6,1,1,0,0,1,133.19,45.06Z" style="fill:#fff"/><path d="M136.81,49.18a1,1,0,0,1-.84-1.54c7.32-11.32,18.63-10.78,19.11-10.75A1,1,0,0,1,156,38a1,1,0,0,1-1.06.94h0c-.43,0-10.64-.47-17.31,9.84A1,1,0,0,1,136.81,49.18Z" style="fill:#fff"/><path d="M140.73,52.93a1,1,0,0,1-.84-1.54C146,42,154.7,43,155.06,43a1,1,0,0,1,.87,1.12,1,1,0,0,1-1.11.87c-.32,0-7.85-.84-13.25,7.49A1,1,0,0,1,140.73,52.93Z" style="fill:#fff"/></g></g></g></svg>